<svg id="Layer_1" data-name="Layer 1" xmlns="http://www.w3.org/2000/svg" viewBox="0 0 127.99 142.91"><title>Blanke shirt</title><g opacity="0.49"><path d="M477.34,281.7a2,2,0,0,1-.84,3c-3.89,2.08-7.82,4.07-11.72,6.13-2.41,1.27-4.8,2.6-7.18,3.93-1.68.94-3.21.6-4.1-1.1-1.38-2.63-3.11-5-4.62-7.57-.16-.27-.32-.6-.65-.58-.58-14.88,2-29.74,4.71-44.34a8.26,8.26,0,0,1,3.84,3.46c2.27,3.64,4,7.58,5.93,11.42,3.37,6.78,6.68,13.59,11,19.82C475,277.74,476.21,279.72,477.34,281.7Z" transform="translate(-349.72 -233.03)" fill="#908e8e"/><path d="M414.11,360.41v.06l-.41,0-.4,0v-.06c-2,0-3.86.61-5.78.87-4.86.66-9.7,0-14.55,0a42.49,42.49,0,0,1-5.19,0c-5.28-.66-7-2.59-6.92-6.64s.63-8.32.86-12.5c.26-4.62.54-9.26.65-13.88.29-12.12.29-24.24-.63-36.34a30.68,30.68,0,0,0-.68-5.78c-.09-.32-.09-.73-.48-.81h-.07c.58-14.87-2-29.74-4.71-44.34a7.17,7.17,0,0,1,1.56-.44c1.62-.28,3.25-.75,4.85-1a51.21,51.21,0,0,0,9.29-2.57,16.89,16.89,0,0,0,5.8-2.88,4.79,4.79,0,0,1,4.19-1,77.33,77.33,0,0,0,24.42,0,4.79,4.79,0,0,1,4.19,1,16.9,16.9,0,0,0,5.8,2.88,51.31,51.31,0,0,0,9.3,2.57c1.6.21,3.23.68,4.85,1a7.17,7.17,0,0,1,1.56.44c-2.72,14.6-5.28,29.47-4.71,44.34h-.07c-.39.08-.39.48-.48.81a30.68,30.68,0,0,0-.68,5.78c-.92,12.1-.92,24.22-.63,36.34.11,4.62.4,9.25.65,13.88.23,4.17.73,8.33.86,12.5s-1.64,6-6.92,6.64a42.49,42.49,0,0,1-5.19,0c-4.85,0-9.69.64-14.55,0C418,361,416.09,360.37,414.11,360.41Z" transform="translate(-349.72 -233.03)" fill="#908e8e"/><path d="M374.48,241.17c2.72,14.6,5.29,29.47,4.71,44.34-.34,0-.49.31-.65.58-1.51,2.54-3.24,4.94-4.62,7.57-.89,1.69-2.42,2-4.1,1.1-2.39-1.33-4.77-2.66-7.18-3.93-3.9-2.06-7.83-4-11.72-6.13a2,2,0,0,1-.84-3c1.13-2,2.29-4,3.6-5.83,4.36-6.23,7.67-13,11-19.82,1.91-3.84,3.65-7.78,5.93-11.42A8.26,8.26,0,0,1,374.48,241.17Z" transform="translate(-349.72 -233.03)" fill="#908e8e"/><path d="M400.45,233l13.26,19.55L427.08,233S418.1,235.06,400.45,233Z" transform="translate(-349.72 -233.03)" fill="#575656"/></g><ellipse cx="64.05" cy="139.82" rx="34.28" ry="3.09" fill="#1d1d1b" opacity="0.65"/><g opacity="0.49"><path d="M405.08,245.29a55.33,55.33,0,0,0,7.07,9c2.25,2.31,5.78-1.23,3.54-3.54a48.91,48.91,0,0,1-6.29-7.94c-1.72-2.71-6-.2-4.32,2.52Z" transform="translate(-349.72 -233.03)" fill="#fff"/><path d="M416.79,252.49q2.7-4,5.74-7.74a2.58,2.58,0,0,0,0-3.54,2.52,2.52,0,0,0-3.54,0q-3.46,4.23-6.53,8.75c-1.81,2.67,2.52,5.18,4.32,2.52Z" transform="translate(-349.72 -233.03)" fill="#fff"/></g><g opacity="0.49"><path d="M383.69,299s16.93,37,15.72,55.49Z" transform="translate(-349.72 -233.03)" opacity="0.1"/><path d="M423.58,346.53s.5-35.5,6.5-44.5Z" transform="translate(-349.72 -233.03)" opacity="0.1"/><path d="M427.85,319.48s2.6-17.79,5.67-22.17Z" transform="translate(-349.72 -233.03)" opacity="0.1"/><path d="M422.91,271.69s12,6.69,14.85,4.84Z" transform="translate(-349.72 -233.03)" opacity="0.1"/><path d="M407.21,272.91s-13,4.38-15.49,2Z" transform="translate(-349.72 -233.03)" opacity="0.1"/></g></svg>