<svg xmlns="http://www.w3.org/2000/svg" viewBox="0 0 127.99 142.91"><title>badge </title><g id="Layer_1" data-name="Layer 1"><path d="M620.35,366.32a2,2,0,0,1-.84,3c-3.89,2.08-7.82,4.07-11.72,6.13-2.41,1.27-4.8,2.6-7.18,3.93-1.68.94-3.21.6-4.1-1.1-1.38-2.63-3.11-5-4.62-7.57-.16-.27-.32-.6-.65-.58-.58-14.88,2-29.74,4.71-44.34a8.27,8.27,0,0,1,3.84,3.46c2.27,3.64,4,7.58,5.93,11.42,3.37,6.78,6.68,13.58,11,19.82C618.06,362.36,619.22,364.34,620.35,366.32Z" transform="translate(-492.72 -317.65)" fill="#a3cbe7"/><path d="M557.12,445v.06l-.41,0-.4,0V445c-2,0-3.86.61-5.78.87-4.86.66-9.7,0-14.55,0a41.83,41.83,0,0,1-5.19,0c-5.28-.66-7-2.59-6.92-6.63s.63-8.33.86-12.5c.26-4.62.54-9.26.65-13.87.29-12.12.29-24.25-.63-36.34a30.65,30.65,0,0,0-.68-5.78c-.09-.33-.09-.73-.48-.81h-.07c.58-14.88-2-29.74-4.71-44.34a7.17,7.17,0,0,1,1.56-.44c1.62-.27,3.25-.75,4.85-1a51.2,51.2,0,0,0,9.29-2.57,16.9,16.9,0,0,0,5.8-2.89,4.8,4.8,0,0,1,4.19-1,77.07,77.07,0,0,0,24.42,0,4.8,4.8,0,0,1,4.19,1,16.91,16.91,0,0,0,5.8,2.89,51.31,51.31,0,0,0,9.3,2.57c1.6.21,3.23.68,4.85,1a7.17,7.17,0,0,1,1.56.44c-2.72,14.6-5.28,29.47-4.71,44.34h-.07c-.39.08-.39.48-.48.81a30.65,30.65,0,0,0-.68,5.78c-.92,12.1-.92,24.22-.63,36.34.11,4.62.4,9.25.65,13.87.23,4.17.73,8.33.86,12.5s-1.64,6-6.92,6.63a41.83,41.83,0,0,1-5.19,0c-4.85,0-9.69.65-14.55,0C561,445.64,559.1,445,557.12,445Z" transform="translate(-492.72 -317.65)" fill="#6d1f30"/><path d="M517.49,325.78c2.72,14.6,5.29,29.47,4.71,44.34-.34,0-.49.31-.65.58-1.51,2.54-3.24,4.94-4.62,7.57-.89,1.69-2.42,2-4.1,1.1-2.39-1.33-4.77-2.66-7.18-3.93-3.9-2.06-7.83-4-11.72-6.13a2,2,0,0,1-.84-3c1.13-2,2.29-4,3.6-5.83,4.36-6.24,7.67-13,11-19.82,1.91-3.85,3.65-7.78,5.93-11.42A8.27,8.27,0,0,1,517.49,325.78Z" transform="translate(-492.72 -317.65)" fill="#a3cbe7"/><path d="M543.46,317.65l13.26,19.55,13.37-19.55S561.11,319.67,543.46,317.65Z" transform="translate(-492.72 -317.65)" fill="#3e071b"/><ellipse cx="64.05" cy="139.82" rx="34.28" ry="3.09" fill="#231f20" opacity="0.65"/><path d="M548.09,329.91a55.33,55.33,0,0,0,7.07,9c2.25,2.31,5.78-1.23,3.54-3.54a48.91,48.91,0,0,1-6.29-7.94c-1.72-2.71-6-.2-4.32,2.52Z" transform="translate(-492.72 -317.65)" fill="#fff"/><path d="M559.8,337.1q2.7-4,5.74-7.74a2.58,2.58,0,0,0,0-3.54,2.52,2.52,0,0,0-3.54,0q-3.46,4.23-6.53,8.75c-1.81,2.67,2.52,5.18,4.32,2.52Z" transform="translate(-492.72 -317.65)" fill="#fff"/><path d="M526.7,383.65s16.93,37,15.72,55.49Z" transform="translate(-492.72 -317.65)" opacity="0.1"/><path d="M566.59,431.15s.5-35.5,6.5-44.5Z" transform="translate(-492.72 -317.65)" opacity="0.1"/><path d="M570.86,404.09s2.6-17.79,5.67-22.17Z" transform="translate(-492.72 -317.65)" opacity="0.1"/><path d="M565.92,356.31s12,6.69,14.85,4.84Z" transform="translate(-492.72 -317.65)" opacity="0.1"/><path d="M550.22,357.53s-13,4.38-15.49,2Z" transform="translate(-492.72 -317.65)" opacity="0.1"/></g></svg>