<svg xmlns="http://www.w3.org/2000/svg" viewBox="0 0 127.99 142.91"><title>Everton</title><g id="Layer_1" data-name="Layer 1"><path d="M643.92,354.62a2,2,0,0,1-.84,3c-3.89,2.08-7.82,4.07-11.72,6.13-2.41,1.27-4.8,2.6-7.18,3.93-1.68.94-3.21.6-4.1-1.1-1.38-2.63-3.12-5-4.62-7.57-.16-.27-.31-.6-.65-.58-.58-14.88,2-29.74,4.7-44.34a8.25,8.25,0,0,1,3.84,3.46c2.27,3.64,4,7.58,5.93,11.42,3.37,6.78,6.68,13.59,11,19.82C641.63,350.66,642.79,352.64,643.92,354.62Z" transform="translate(-516.29 -305.95)" fill="#215aa9"/><path d="M579.88,433.33c-2,0-3.86.61-5.78.87-4.86.66-9.7,0-14.55,0a41.83,41.83,0,0,1-5.19,0c-5.28-.66-7-2.59-6.92-6.63s.63-8.33.86-12.5c.26-4.62.54-9.26.65-13.88.29-12.12.29-24.24-.63-36.34a30.71,30.71,0,0,0-.67-5.78c-.09-.32-.09-.73-.48-.81h-.08c.58-14.88-2-29.74-4.71-44.34a7.26,7.26,0,0,1,1.56-.44c1.62-.27,3.25-.75,4.85-1a51.55,51.55,0,0,0,9.29-2.57,16.91,16.91,0,0,0,5.8-2.89,4.8,4.8,0,0,1,4.19-1,77.36,77.36,0,0,0,24.42,0,4.8,4.8,0,0,1,4.19,1,16.94,16.94,0,0,0,5.8,2.89,51.62,51.62,0,0,0,9.29,2.57c1.6.21,3.23.68,4.85,1a7.17,7.17,0,0,1,1.56.44c-2.72,14.6-5.28,29.47-4.71,44.34h-.07c-.39.08-.39.48-.48.81a30.44,30.44,0,0,0-.68,5.78c-.92,12.1-.92,24.22-.63,36.34.11,4.62.4,9.25.65,13.88.23,4.17.73,8.33.86,12.5s-1.64,6-6.92,6.63a41.88,41.88,0,0,1-5.19,0c-4.84,0-9.69.65-14.55,0-1.93-.26-3.81-.92-5.78-.87v.06l-.4,0-.4,0Z" transform="translate(-516.29 -305.95)" fill="#215aa9"/><path d="M541.06,314.09c2.72,14.6,5.28,29.47,4.71,44.34-.34,0-.49.31-.65.58-1.51,2.54-3.25,4.94-4.62,7.57-.89,1.7-2.42,2-4.1,1.1-2.39-1.33-4.77-2.66-7.18-3.93-3.9-2.06-7.83-4-11.72-6.13a2,2,0,0,1-.84-3c1.14-2,2.3-4,3.6-5.83,4.36-6.23,7.67-13,11-19.82,1.91-3.84,3.65-7.78,5.93-11.42A8.28,8.28,0,0,1,541.06,314.09Z" transform="translate(-516.29 -305.95)" fill="#215aa9"/><path d="M567,306l13.26,19.55L593.66,306S584.67,308,567,306Z" transform="translate(-516.29 -305.95)" fill="#132c4f"/><ellipse cx="64.05" cy="139.82" rx="34.28" ry="3.09" fill="#231f20" opacity="0.65"/><path d="M571.42,318.21a55.33,55.33,0,0,0,7.07,9c2.25,2.31,5.78-1.23,3.54-3.54a48.91,48.91,0,0,1-6.29-7.94c-1.72-2.71-6-.2-4.32,2.52Z" transform="translate(-516.29 -305.95)" fill="#fff"/><path d="M583.13,325.41q2.7-4,5.74-7.74a2.58,2.58,0,0,0,0-3.54,2.52,2.52,0,0,0-3.54,0q-3.46,4.23-6.53,8.75c-1.81,2.67,2.52,5.18,4.32,2.52Z" transform="translate(-516.29 -305.95)" fill="#fff"/><path d="M549.54,371.89s16.93,37,15.72,55.49Z" transform="translate(-516.29 -305.95)" opacity="0.1"/><path d="M589.43,419.39s.5-35.5,6.5-44.5Z" transform="translate(-516.29 -305.95)" opacity="0.1"/><path d="M593.69,392.33s2.6-17.79,5.67-22.17Z" transform="translate(-516.29 -305.95)" opacity="0.1"/><path d="M588.76,344.55s12,6.69,14.85,4.84Z" transform="translate(-516.29 -305.95)" opacity="0.1"/><path d="M573.06,345.77s-13,4.38-15.49,2Z" transform="translate(-516.29 -305.95)" opacity="0.1"/></g></svg>