<svg xmlns="http://www.w3.org/2000/svg" xmlns:xlink="http://www.w3.org/1999/xlink" viewBox="0 0 127.99 145.44"><defs><clipPath id="clip-path" transform="translate(-555.47 -338.96)"><path d="M655.87,350.73a7.19,7.19,0,0,1,1.56.44c-2.72,14.6-5.28,29.47-4.7,44.34h-.08c-.39.08-.39.48-.48.81a30.91,30.91,0,0,0-.68,5.78c-.92,12.1-.92,24.22-.63,36.34.11,4.62.4,9.25.65,13.87.24,4.17.73,8.33.86,12.5s-1.64,6-6.92,6.63a41.79,41.79,0,0,1-5.19,0c-4.85,0-9.69.65-14.55,0-1.93-.26-3.81-.92-5.78-.87v.06l-.4,0-.4,0v-.06c-2,0-3.86.61-5.78.87-4.86.66-9.7,0-14.55,0a41.79,41.79,0,0,1-5.19,0c-5.28-.66-7-2.59-6.92-6.63s.63-8.33.86-12.5c.26-4.62.54-9.26.65-13.87.29-12.12.29-24.25-.63-36.34a30.36,30.36,0,0,0-.68-5.78c-.09-.33-.09-.73-.48-.81h-.07c.58-14.88-2-29.74-4.71-44.34a7.18,7.18,0,0,1,1.56-.44c1.62-.27,3.25-.75,4.85-1a51.61,51.61,0,0,0,9.29-2.57,16.94,16.94,0,0,0,5.8-2.89,4.8,4.8,0,0,1,4.19-1,77.35,77.35,0,0,0,24.42,0,4.79,4.79,0,0,1,4.19,1,17,17,0,0,0,5.8,2.89,51.46,51.46,0,0,0,9.29,2.57C652.62,350,654.25,350.45,655.87,350.73Z" fill="#da8841"/></clipPath></defs><title>Hull</title><g id="Layer_1" data-name="Layer 1"><path d="M683.1,391.89a2,2,0,0,1-.84,3c-3.89,2.08-7.82,4.07-11.72,6.13-2.41,1.28-4.8,2.6-7.18,3.93-1.68.94-3.21.6-4.1-1.1-1.38-2.63-3.12-5-4.62-7.57-.16-.27-.32-.6-.65-.58-.58-14.88,2-29.74,4.71-44.34a8.28,8.28,0,0,1,3.84,3.46c2.27,3.64,4,7.58,5.93,11.42,3.37,6.78,6.68,13.59,11,19.82C680.81,387.94,682,389.91,683.1,391.89Z" transform="translate(-555.47 -338.96)" fill="#d98c41"/><path d="M580.24,351.36c2.72,14.6,5.29,29.47,4.71,44.34-.34,0-.49.31-.65.58-1.51,2.54-3.25,4.94-4.62,7.57-.89,1.7-2.42,2-4.1,1.1-2.39-1.33-4.77-2.65-7.18-3.93-3.9-2.06-7.83-4-11.72-6.13a2,2,0,0,1-.84-3c1.13-2,2.3-4,3.6-5.83,4.36-6.24,7.67-13,11-19.82,1.91-3.84,3.66-7.78,5.93-11.42A8.28,8.28,0,0,1,580.24,351.36Z" transform="translate(-555.47 -338.96)" fill="#d98c41"/><path d="M655.87,350.73a7.19,7.19,0,0,1,1.56.44c-2.72,14.6-5.28,29.47-4.7,44.34h-.08c-.39.08-.39.48-.48.81a30.91,30.91,0,0,0-.68,5.78c-.92,12.1-.92,24.22-.63,36.34.11,4.62.4,9.25.65,13.87.24,4.17.73,8.33.86,12.5s-1.64,6-6.92,6.63a41.79,41.79,0,0,1-5.19,0c-4.85,0-9.69.65-14.55,0-1.93-.26-3.81-.92-5.78-.87v.06l-.4,0-.4,0v-.06c-2,0-3.86.61-5.78.87-4.86.66-9.7,0-14.55,0a41.79,41.79,0,0,1-5.19,0c-5.28-.66-7-2.59-6.92-6.63s.63-8.33.86-12.5c.26-4.62.54-9.26.65-13.87.29-12.12.29-24.25-.63-36.34a30.36,30.36,0,0,0-.68-5.78c-.09-.33-.09-.73-.48-.81h-.07c.58-14.88-2-29.74-4.71-44.34a7.18,7.18,0,0,1,1.56-.44c1.62-.27,3.25-.75,4.85-1a51.61,51.61,0,0,0,9.29-2.57,16.94,16.94,0,0,0,5.8-2.89,4.8,4.8,0,0,1,4.19-1,77.35,77.35,0,0,0,24.42,0,4.79,4.79,0,0,1,4.19,1,17,17,0,0,0,5.8,2.89,51.46,51.46,0,0,0,9.29,2.57C652.62,350,654.25,350.45,655.87,350.73Z" transform="translate(-555.47 -338.96)" fill="#da8841"/><g clip-path="url(#clip-path)"><rect x="9.63" width="7.2" height="137.08" fill="#231f20"/><rect x="29.29" width="7.2" height="137.08" fill="#231f20"/><rect x="52.78" y="0.73" width="22.53" height="137.08" fill="#231f20"/><rect x="91.54" width="7.2" height="137.08" fill="#231f20"/></g><path d="M606.21,343.23l13.26,19.55,13.37-19.55S623.85,345.25,606.21,343.23Z" transform="translate(-555.47 -338.96)" fill="#231f20"/><ellipse cx="64.05" cy="142.36" rx="34.28" ry="3.09" fill="#231f20" opacity="0.65"/><path d="M610.6,356.73a55.33,55.33,0,0,0,7.07,9c2.25,2.31,5.78-1.23,3.54-3.54a48.91,48.91,0,0,1-6.29-7.94c-1.72-2.71-6-.2-4.32,2.52Z" transform="translate(-555.47 -338.96)" fill="#fff"/><path d="M622.31,363.93q2.7-4,5.74-7.74a2.58,2.58,0,0,0,0-3.54,2.52,2.52,0,0,0-3.54,0q-3.46,4.23-6.53,8.75c-1.81,2.67,2.52,5.18,4.32,2.52Z" transform="translate(-555.47 -338.96)" fill="#fff"/><path d="M590.57,407.49c4.67,10.2,17.6,26.8,15.72,55.49Z" transform="translate(-555.47 -338.96)" opacity="0.1"/><path d="M630.46,455s.5-35.5,6.5-44.5Z" transform="translate(-555.47 -338.96)" opacity="0.1"/><path d="M634.72,427.93s2.6-17.79,5.67-22.17Z" transform="translate(-555.47 -338.96)" opacity="0.1"/><path d="M629.79,380.15s12,6.69,14.85,4.84Z" transform="translate(-555.47 -338.96)" opacity="0.1"/><path d="M614.09,381.37s-13,4.38-15.49,2Z" transform="translate(-555.47 -338.96)" opacity="0.1"/></g></svg>