<svg xmlns="http://www.w3.org/2000/svg" viewBox="0 0 127.67 142.91"><title>Keeper blank shirt</title><g id="Layer_2" data-name="Layer 2"><ellipse cx="63.73" cy="139.82" rx="34.28" ry="3.09" fill="#1d1d1b" opacity="0.65"/><g opacity="0.49"><path d="M229.65,302.21v-.06c-2,0-3.86.61-5.78.87-4.86.66-9.7,0-14.55,0a42.49,42.49,0,0,1-5.19,0c-5.28-.66-7.05-2.59-6.92-6.63s.63-8.33.86-12.5c.26-4.62.54-9.26.65-13.88.29-12.12.29-24.24-.63-36.34a30.71,30.71,0,0,0-.67-5.78c-.09-.32-.09-.73-.48-.81h-.08c.58-14.88-2-29.74-4.71-44.34a7.26,7.26,0,0,1,1.56-.44c1.62-.27,3.25-.75,4.85-1a51.55,51.55,0,0,0,9.29-2.57,16.91,16.91,0,0,0,5.8-2.89,4.8,4.8,0,0,1,4.19-1,77.36,77.36,0,0,0,24.42,0,4.8,4.8,0,0,1,4.19,1,16.94,16.94,0,0,0,5.8,2.89,51.62,51.62,0,0,0,9.29,2.57c1.6.21,3.23.68,4.85,1a7.17,7.17,0,0,1,1.56.44c-2.72,14.6-5.28,29.47-4.71,44.34h-.07c-.39.08-.39.48-.48.81a30.44,30.44,0,0,0-.68,5.78c-.92,12.1-.92,24.22-.63,36.34.11,4.62.4,9.25.65,13.88.23,4.17.73,8.33.86,12.5s-1.64,6-6.92,6.63a42.55,42.55,0,0,1-5.19,0c-4.84,0-9.69.65-14.55,0-1.93-.26-3.81-.92-5.78-.87v.06l-.4,0Z" transform="translate(-166.38 -174.78)" fill="#908e8e"/><path d="M216.8,174.78l13.26,19.55,13.37-19.55S234.44,176.8,216.8,174.78Z" transform="translate(-166.38 -174.78)" fill="#444"/><path d="M221.43,187a55.33,55.33,0,0,0,7.07,9c2.25,2.31,5.78-1.23,3.54-3.54a48.91,48.91,0,0,1-6.29-7.94c-1.72-2.71-6-.2-4.32,2.52Z" transform="translate(-166.38 -174.78)" fill="#fff"/><path d="M233.14,194.23q2.7-4,5.74-7.74a2.58,2.58,0,0,0,0-3.54,2.52,2.52,0,0,0-3.54,0q-3.46,4.23-6.53,8.75c-1.81,2.67,2.52,5.18,4.32,2.52Z" transform="translate(-166.38 -174.78)" fill="#fff"/><path d="M200,240.78s16.93,37,15.72,55.49Z" transform="translate(-166.38 -174.78)" opacity="0.1"/><path d="M239.93,288.27s.5-35.5,6.5-44.5Z" transform="translate(-166.38 -174.78)" opacity="0.1"/><path d="M244.19,261.22s2.6-17.79,5.67-22.17Z" transform="translate(-166.38 -174.78)" opacity="0.1"/><path d="M239.26,213.44s12,6.69,14.85,4.84Z" transform="translate(-166.38 -174.78)" opacity="0.1"/><path d="M223.56,214.66s-13,4.38-15.49,2Z" transform="translate(-166.38 -174.78)" opacity="0.1"/><path d="M269.29,182.91s-6.52,39.69-4.71,44.34l4.71,7.12,5.61,8.29-10.64,27s6.64,4.75,10.64,5.5L294.05,237S275.93,185.91,269.29,182.91Z" transform="translate(-166.38 -174.78)" fill="#908e8e"/><path d="M191.15,182.91s6.52,39.69,4.71,44.34l-4.71,7.12-5.61,8.29,10.64,27s-6.64,4.75-10.64,5.5L166.38,237S184.51,185.91,191.15,182.91Z" transform="translate(-166.38 -174.78)" fill="#908e8e"/><path d="M207.08,282.45l7.67,12.82s-.5,3.29-3.44,2.06l-5.1-8.51s-.78-.12-1,.57l5.44,9.09s-.46,3.14-3.25,1.95l-5.33-8.9s-1-.42-.9.67l4.52,7.56A2.71,2.71,0,0,1,202,302l-3.84-6.41s-2.54-5.76-1.81-6.71c0,0,0-4.4,2.25-6.55l1.2-.72A69.65,69.65,0,0,1,207.08,282.45Z" transform="translate(-166.38 -174.78)" fill="#444"/><path d="M213.41,282.82l-13.94-2.44a6.76,6.76,0,0,0-2.3,1.37s-2.28,7.47-1.63,9.42a17.86,17.86,0,0,0,1.39,4.48l2.3,3.84a2,2,0,0,1-2.87,1.72l-3.26-5.45s-3.2-8.17-3-10c0,0-2.17-5.15-1.79-6.68,0,0,2.22-4.32,11.1-6.64a2,2,0,0,0,1.83,1.76l12.62,3.49S217.56,280.85,213.41,282.82Z" transform="translate(-166.38 -174.78)" fill="#444"/><path d="M199.6,271,197,266.76a23.57,23.57,0,0,0-12.34,7.39l2.56,4.28S189.93,274.86,199.6,271Z" transform="translate(-166.38 -174.78)" fill="#444"/><path d="M185.86,274.24l-1-1.75A30.61,30.61,0,0,1,195.62,266l1.07,1.79" transform="translate(-166.38 -174.78)" fill="#444"/><path d="M254.73,283.1l-7.67,12.82s.5,3.29,3.44,2.06l5.1-8.51s.78-.12,1,.57l-5.44,9.09s.46,3.14,3.25,1.95l5.33-8.9s1-.42.9.67l-4.52,7.56a2.71,2.71,0,0,0,3.73,2.23l3.84-6.41s2.54-5.76,1.81-6.71c0,0,0-4.4-2.25-6.55l-1.2-.72A69.65,69.65,0,0,0,254.73,283.1Z" transform="translate(-166.38 -174.78)" fill="#444"/><path d="M248.4,283.47,262.34,281a6.76,6.76,0,0,1,2.3,1.37s2.28,7.47,1.63,9.42a17.86,17.86,0,0,1-1.39,4.48l-2.3,3.84a2,2,0,0,0,2.87,1.72l3.26-5.45s3.2-8.17,3-10c0,0,2.17-5.15,1.79-6.68,0,0-2.22-4.32-11.1-6.64a2,2,0,0,1-1.83,1.76l-12.62,3.49S244.25,281.51,248.4,283.47Z" transform="translate(-166.38 -174.78)" fill="#444"/><path d="M262.21,271.7l2.56-4.28a23.57,23.57,0,0,1,12.34,7.39l-2.56,4.28S271.88,275.51,262.21,271.7Z" transform="translate(-166.38 -174.78)" fill="#444"/><path d="M275.95,274.89l1-1.75a30.61,30.61,0,0,0-10.81-6.47l-1.07,1.79" transform="translate(-166.38 -174.78)" fill="#444"/></g></g></svg>