<svg xmlns="http://www.w3.org/2000/svg" viewBox="0 0 127.99 142.91"><title>leicester</title><g id="Layer_1" data-name="Layer 1"><path d="M508.9,373a2,2,0,0,1-.84,3c-3.89,2.08-7.82,4.07-11.72,6.13-2.41,1.27-4.8,2.6-7.18,3.93-1.68.94-3.21.6-4.1-1.1-1.38-2.63-3.11-5-4.62-7.57-.16-.27-.32-.6-.65-.58-.58-14.88,2-29.74,4.71-44.34a8.26,8.26,0,0,1,3.84,3.46c2.27,3.64,4,7.58,5.93,11.42,3.37,6.78,6.68,13.59,11,19.82C506.61,369.07,507.77,371,508.9,373Z" transform="translate(-381.27 -324.36)" fill="#1253a4"/><path d="M444.86,451.74c-2,0-3.86.61-5.78.87-4.86.66-9.7,0-14.55,0a42.49,42.49,0,0,1-5.19,0c-5.28-.66-7-2.59-6.92-6.64s.63-8.32.86-12.5c.26-4.62.54-9.26.65-13.88.29-12.12.29-24.24-.63-36.34a31,31,0,0,0-.68-5.78c-.09-.32-.09-.73-.48-.81h-.08c.58-14.87-2-29.74-4.7-44.34a7.17,7.17,0,0,1,1.56-.44c1.62-.28,3.25-.75,4.85-1a51.21,51.21,0,0,0,9.29-2.57,16.89,16.89,0,0,0,5.8-2.88,4.79,4.79,0,0,1,4.19-1,77.36,77.36,0,0,0,24.42,0,4.8,4.8,0,0,1,4.19,1,16.87,16.87,0,0,0,5.8,2.88,51.36,51.36,0,0,0,9.29,2.57c1.6.21,3.23.68,4.85,1a7.17,7.17,0,0,1,1.56.44c-2.72,14.6-5.28,29.47-4.71,44.34h-.07c-.39.08-.39.48-.48.81a30.68,30.68,0,0,0-.68,5.78c-.92,12.1-.92,24.22-.63,36.34.11,4.62.4,9.25.65,13.88.23,4.17.73,8.33.86,12.5s-1.64,6-6.92,6.64a42.49,42.49,0,0,1-5.19,0c-4.85,0-9.69.64-14.55,0-1.93-.26-3.81-.92-5.78-.87v.06l-.4,0-.4,0Z" transform="translate(-381.27 -324.36)" fill="#1253a4"/><path d="M406,332.5c2.72,14.6,5.28,29.47,4.71,44.34-.34,0-.49.31-.65.58-1.51,2.54-3.24,4.94-4.62,7.57-.89,1.69-2.42,2-4.1,1.1-2.39-1.33-4.77-2.66-7.18-3.93-3.9-2.06-7.83-4-11.72-6.13a2,2,0,0,1-.84-3c1.14-2,2.3-4,3.6-5.83,4.36-6.23,7.67-13,11-19.82,1.91-3.84,3.65-7.78,5.93-11.42A8.26,8.26,0,0,1,406,332.5Z" transform="translate(-381.27 -324.36)" fill="#1253a4"/><path d="M432,324.36l13.26,19.55,13.37-19.55S449.65,326.38,432,324.36Z" transform="translate(-381.27 -324.36)" fill="#132c4f"/><ellipse cx="64.05" cy="139.82" rx="34.28" ry="3.09" fill="#231f20" opacity="0.65"/><path d="M459.81,356.47a5.12,5.12,0,0,0,8.67-.24,2.53,2.53,0,0,0-2.16-3.76l-2.38-.11a2.5,2.5,0,0,0,0,5l2.38.11-2.16-3.76c-.22.4.21-.15,0,0s.36-.19.06,0,.42,0,0,0,.32,0,0,0c-.06,0-.51,0-.15,0s-.15-.06-.23-.07c.16,0,.35.17.08,0,.45.25-.06-.17.22.23a2.57,2.57,0,0,0-3.42-.9,2.52,2.52,0,0,0-.9,3.42Z" transform="translate(-381.27 -324.36)" fill="#cca542"/><path d="M415.4,391.89s16.93,37,15.72,55.49Z" transform="translate(-381.27 -324.36)" opacity="0.1"/><path d="M455.29,439.39s.5-35.5,6.5-44.5Z" transform="translate(-381.27 -324.36)" opacity="0.1"/><path d="M459.56,412.33s2.6-17.79,5.67-22.17Z" transform="translate(-381.27 -324.36)" opacity="0.1"/><path d="M454.62,364.55s12,6.69,14.85,4.84Z" transform="translate(-381.27 -324.36)" opacity="0.1"/><path d="M438.92,365.77s-13,4.38-15.49,2Z" transform="translate(-381.27 -324.36)" opacity="0.1"/></g></svg>