<svg xmlns="http://www.w3.org/2000/svg" xmlns:xlink="http://www.w3.org/1999/xlink" viewBox="0 0 127.99 142.91"><defs><clipPath id="clip-path" transform="translate(-550.45 -321.08)"><path d="M650.84,328.58a7.45,7.45,0,0,1,1.56.44c-2.72,14.6-5.29,29.47-4.71,44.34h-.08c-.39.08-.39.48-.48.81a30.67,30.67,0,0,0-.67,5.78c-.92,12.1-.92,24.23-.63,36.34.11,4.62.39,9.25.65,13.87.23,4.17.73,8.33.86,12.5s-1.64,6-6.92,6.64a42.49,42.49,0,0,1-5.19,0c-4.85,0-9.69.64-14.55,0-1.93-.26-3.81-.92-5.78-.87v.06l-.4,0-.4,0v-.06c-2,0-3.86.61-5.78.87-4.86.66-9.7,0-14.55,0a42.55,42.55,0,0,1-5.19,0c-5.28-.66-7-2.59-6.92-6.64s.63-8.33.86-12.5c.26-4.62.54-9.26.65-13.87.29-12.12.29-24.25-.63-36.34a30.41,30.41,0,0,0-.68-5.78c-.09-.33-.09-.73-.48-.81h-.07c.58-14.88-2-29.74-4.71-44.34a7.37,7.37,0,0,1,1.56-.44c1.62-.27,3.25-.74,4.85-1a51.63,51.63,0,0,0,9.29-2.57,16.93,16.93,0,0,0,5.8-2.88,4.79,4.79,0,0,1,4.19-1,77.09,77.09,0,0,0,24.42,0,4.79,4.79,0,0,1,4.19,1,16.9,16.9,0,0,0,5.8,2.88,51.55,51.55,0,0,0,9.29,2.57C647.59,327.83,649.22,328.3,650.84,328.58Z" fill="#e7324d"/></clipPath></defs><title>Man United</title><g id="Layer_1" data-name="Layer 1"><ellipse cx="64.05" cy="139.82" rx="34.28" ry="3.09" fill="#231f20" opacity="0.65"/><path d="M678.08,369.75a2,2,0,0,1-.84,3c-3.89,2.08-7.82,4.07-11.72,6.13-2.41,1.28-4.8,2.6-7.18,3.93-1.68.94-3.21.6-4.1-1.1-1.38-2.63-3.12-5-4.62-7.57-.16-.27-.32-.6-.65-.58-.58-14.88,2-29.74,4.71-44.34a8.28,8.28,0,0,1,3.84,3.46c2.27,3.64,4,7.58,5.93,11.42,3.37,6.78,6.68,13.59,11,19.82C675.78,365.79,676.94,367.76,678.08,369.75Z" transform="translate(-550.45 -321.08)" fill="#d12741"/><path d="M575.21,329.21c2.72,14.6,5.29,29.47,4.71,44.34-.34,0-.49.31-.65.58-1.51,2.54-3.25,4.94-4.62,7.57-.89,1.7-2.42,2-4.1,1.1-2.39-1.33-4.77-2.65-7.18-3.93-3.9-2.06-7.83-4-11.72-6.13a2,2,0,0,1-.84-3c1.13-2,2.29-4,3.6-5.83,4.36-6.24,7.67-13,11-19.82,1.91-3.84,3.66-7.78,5.93-11.42A8.28,8.28,0,0,1,575.21,329.21Z" transform="translate(-550.45 -321.08)" fill="#e93450"/><path d="M650.84,328.58a7.45,7.45,0,0,1,1.56.44c-2.72,14.6-5.29,29.47-4.71,44.34h-.08c-.39.08-.39.48-.48.81a30.67,30.67,0,0,0-.67,5.78c-.92,12.1-.92,24.23-.63,36.34.11,4.62.39,9.25.65,13.87.23,4.17.73,8.33.86,12.5s-1.64,6-6.92,6.64a42.49,42.49,0,0,1-5.19,0c-4.85,0-9.69.64-14.55,0-1.93-.26-3.81-.92-5.78-.87v.06l-.4,0-.4,0v-.06c-2,0-3.86.61-5.78.87-4.86.66-9.7,0-14.55,0a42.55,42.55,0,0,1-5.19,0c-5.28-.66-7-2.59-6.92-6.64s.63-8.33.86-12.5c.26-4.62.54-9.26.65-13.87.29-12.12.29-24.25-.63-36.34a30.41,30.41,0,0,0-.68-5.78c-.09-.33-.09-.73-.48-.81h-.07c.58-14.88-2-29.74-4.71-44.34a7.37,7.37,0,0,1,1.56-.44c1.62-.27,3.25-.74,4.85-1a51.63,51.63,0,0,0,9.29-2.57,16.93,16.93,0,0,0,5.8-2.88,4.79,4.79,0,0,1,4.19-1,77.09,77.09,0,0,0,24.42,0,4.79,4.79,0,0,1,4.19,1,16.9,16.9,0,0,0,5.8,2.88,51.55,51.55,0,0,0,9.29,2.57C647.59,327.83,649.22,328.3,650.84,328.58Z" transform="translate(-550.45 -321.08)" fill="#e7324d"/><g clip-path="url(#clip-path)"><rect x="26.15" width="35.45" height="134.86" fill="#cb263e"/></g><path d="M601.19,321.08l13.26,19.55,13.37-19.55S618.83,323.1,601.19,321.08Z" transform="translate(-550.45 -321.08)" fill="#55001a"/><path d="M604.89,334.69a55.33,55.33,0,0,0,7.07,9c2.25,2.31,5.78-1.23,3.54-3.54a48.91,48.91,0,0,1-6.29-7.94c-1.72-2.71-6-.2-4.32,2.52Z" transform="translate(-550.45 -321.08)" fill="#bb2137"/><path d="M616.6,341.89q2.7-4,5.74-7.74a2.58,2.58,0,0,0,0-3.54,2.52,2.52,0,0,0-3.54,0q-3.46,4.23-6.53,8.75c-1.81,2.67,2.52,5.18,4.32,2.52Z" transform="translate(-550.45 -321.08)" fill="#bb2137"/><path d="M584.26,388.89s16.93,37,15.72,55.49Z" transform="translate(-550.45 -321.08)" opacity="0.1"/><path d="M624.15,436.39s.5-35.5,6.5-44.5Z" transform="translate(-550.45 -321.08)" opacity="0.1"/><path d="M628.42,409.33s2.6-17.79,5.67-22.17Z" transform="translate(-550.45 -321.08)" opacity="0.1"/><path d="M623.48,361.55s12,6.69,14.85,4.84Z" transform="translate(-550.45 -321.08)" opacity="0.1"/><path d="M607.78,362.77s-13,4.38-15.49,2Z" transform="translate(-550.45 -321.08)" opacity="0.1"/></g></svg>