<svg xmlns="http://www.w3.org/2000/svg" viewBox="0 0 127.99 142.91"><title>Man City</title><g id="Layer_1" data-name="Layer 1"><path d="M652.58,387.74a2,2,0,0,1-.84,3c-3.89,2.08-7.82,4.07-11.72,6.13-2.41,1.27-4.8,2.6-7.18,3.93-1.68.94-3.21.6-4.1-1.1-1.38-2.63-3.11-5-4.62-7.57-.16-.27-.32-.6-.65-.58-.58-14.88,2-29.74,4.71-44.34a8.29,8.29,0,0,1,3.84,3.46c2.27,3.64,4,7.58,5.93,11.42,3.37,6.78,6.68,13.59,11,19.82C650.28,383.78,651.44,385.76,652.58,387.74Z" transform="translate(-524.95 -339.08)" fill="#58688a"/><path d="M588.94,466.47l-.4,0v-.06c-2,0-3.86.61-5.78.87-4.86.66-9.7,0-14.55,0a42.49,42.49,0,0,1-5.19,0c-5.28-.66-7-2.59-6.92-6.64s.63-8.33.86-12.5c.26-4.62.54-9.26.65-13.87.29-12.12.29-24.25-.63-36.34a30.68,30.68,0,0,0-.68-5.78c-.09-.33-.09-.73-.48-.81h-.07c.58-14.88-2-29.74-4.71-44.34a7.37,7.37,0,0,1,1.56-.44c1.62-.27,3.25-.74,4.85-1a51.48,51.48,0,0,0,9.29-2.57,17,17,0,0,0,5.8-2.88,4.79,4.79,0,0,1,4.19-1,77.07,77.07,0,0,0,24.42,0,4.79,4.79,0,0,1,4.19,1,17,17,0,0,0,5.8,2.88,51.59,51.59,0,0,0,9.3,2.57c1.6.21,3.23.68,4.85,1a7.37,7.37,0,0,1,1.56.44c-2.72,14.6-5.28,29.47-4.71,44.34h-.07c-.39.08-.39.48-.48.81a30.68,30.68,0,0,0-.68,5.78c-.92,12.1-.92,24.23-.63,36.34.11,4.62.4,9.25.65,13.87.23,4.17.73,8.33.86,12.5s-1.64,6-6.92,6.64a42.49,42.49,0,0,1-5.19,0c-4.85,0-9.69.64-14.55,0-1.93-.26-3.81-.92-5.78-.87v.06Z" transform="translate(-524.95 -339.08)" fill="#78b0da"/><path d="M549.71,347.21c2.72,14.6,5.29,29.47,4.71,44.34-.34,0-.49.31-.65.58-1.51,2.55-3.24,4.94-4.62,7.57-.89,1.69-2.42,2-4.1,1.1-2.39-1.33-4.77-2.66-7.18-3.93-3.9-2.06-7.83-4-11.72-6.13a2,2,0,0,1-.84-3c1.13-2,2.29-4,3.6-5.83,4.36-6.23,7.67-13,11-19.82,1.91-3.85,3.65-7.78,5.93-11.42A8.29,8.29,0,0,1,549.71,347.21Z" transform="translate(-524.95 -339.08)" fill="#58688a"/><path d="M575.69,339.08l13.26,19.55,13.37-19.55S593.33,341.1,575.69,339.08Z" transform="translate(-524.95 -339.08)" fill="#587c92"/><ellipse cx="64.05" cy="139.82" rx="34.28" ry="3.09" fill="#231f20" opacity="0.65"/><path d="M579.39,352.69a55.33,55.33,0,0,0,7.07,9c2.25,2.31,5.78-1.23,3.54-3.54a48.91,48.91,0,0,1-6.29-7.94c-1.72-2.71-6-.2-4.32,2.52Z" transform="translate(-524.95 -339.08)" fill="#58688a"/><path d="M591.1,359.89q2.7-4,5.74-7.74a2.58,2.58,0,0,0,0-3.54,2.52,2.52,0,0,0-3.54,0q-3.46,4.23-6.53,8.75c-1.81,2.67,2.52,5.18,4.32,2.52Z" transform="translate(-524.95 -339.08)" fill="#58688a"/><path d="M558,406.89s16.93,37,15.72,55.49Z" transform="translate(-524.95 -339.08)" opacity="0.1"/><path d="M597.92,454.39s.5-35.5,6.5-44.5Z" transform="translate(-524.95 -339.08)" opacity="0.1"/><path d="M602.19,427.33s2.6-17.79,5.67-22.17Z" transform="translate(-524.95 -339.08)" opacity="0.1"/><path d="M597.25,379.55s12,6.69,14.85,4.84Z" transform="translate(-524.95 -339.08)" opacity="0.1"/><path d="M581.55,380.77s-13,4.38-15.49,2Z" transform="translate(-524.95 -339.08)" opacity="0.1"/></g></svg>