<svg xmlns="http://www.w3.org/2000/svg" xmlns:xlink="http://www.w3.org/1999/xlink" viewBox="0 0 135.25 142.77"><defs><clipPath id="clip-path" transform="translate(-485.71 -319.59)"><path d="M593.31,327.12a7.17,7.17,0,0,1,1.56.44c-2.72,14.6-5.28,29.47-4.7,44.34h-.08c-.39.08-.39.48-.48.81a30.93,30.93,0,0,0-.68,5.78c-.92,12.1-.92,24.22-.63,36.34.11,4.62.4,9.25.65,13.87.23,4.17.73,8.33.86,12.5s-1.64,6-6.92,6.63a41.83,41.83,0,0,1-5.19,0c-4.85,0-9.69.65-14.55,0-1.93-.26-3.81-.92-5.78-.87v.06l-.4,0-.4,0V447c-2,0-3.86.61-5.78.87-4.86.66-9.7,0-14.55,0a41.83,41.83,0,0,1-5.19,0c-5.28-.66-7-2.59-6.92-6.63s.63-8.33.86-12.5c.26-4.62.54-9.26.65-13.87.29-12.12.29-24.25-.63-36.34a30.37,30.37,0,0,0-.68-5.78c-.09-.33-.09-.73-.48-.81h-.07c.58-14.88-2-29.74-4.71-44.34a7.17,7.17,0,0,1,1.56-.44c1.62-.27,3.25-.75,4.85-1a51.62,51.62,0,0,0,9.29-2.57,16.94,16.94,0,0,0,5.8-2.89,4.8,4.8,0,0,1,4.19-1,77.36,77.36,0,0,0,24.42,0,4.79,4.79,0,0,1,4.19,1,17,17,0,0,0,5.8,2.89,51.47,51.47,0,0,0,9.29,2.57C590.06,326.37,591.7,326.84,593.31,327.12Z" fill="#d32940"/></clipPath></defs><title>Middlesbrough</title><g id="Layer_1" data-name="Layer 1"><path d="M620.61,368.12a2,2,0,0,1-.84,3c-3.89,2.08-7.82,4.07-11.72,6.13-2.41,1.28-4.8,2.6-7.18,3.93-1.68.94-3.21.6-4.1-1.1-1.38-2.63-3.12-5-4.62-7.57-.16-.27-.32-.6-.65-.58-.58-14.88,2-29.74,4.71-44.34A8.28,8.28,0,0,1,600,331c2.27,3.64,4,7.58,5.93,11.42,3.37,6.78,6.68,13.59,11,19.82C618.31,364.16,619.47,366.14,620.61,368.12Z" transform="translate(-485.71 -319.59)" fill="#d32940"/><path d="M517.74,327.59c2.72,14.6,5.29,29.47,4.71,44.34-.34,0-.49.31-.65.58-1.51,2.54-3.25,4.94-4.62,7.57-.89,1.7-2.42,2-4.1,1.1-2.39-1.33-4.77-2.65-7.18-3.93-3.9-2.06-7.83-4-11.72-6.13a2,2,0,0,1-.84-3c1.13-2,2.29-4,3.6-5.83,4.36-6.24,7.67-13,11-19.82,1.91-3.84,3.66-7.78,5.93-11.42A8.28,8.28,0,0,1,517.74,327.59Z" transform="translate(-485.71 -319.59)" fill="#da2d44"/><ellipse cx="71.31" cy="139.69" rx="34.28" ry="3.09" fill="#231f20" opacity="0.65"/><path d="M593.31,327.12a7.17,7.17,0,0,1,1.56.44c-2.72,14.6-5.28,29.47-4.7,44.34h-.08c-.39.08-.39.48-.48.81a30.93,30.93,0,0,0-.68,5.78c-.92,12.1-.92,24.22-.63,36.34.11,4.62.4,9.25.65,13.87.23,4.17.73,8.33.86,12.5s-1.64,6-6.92,6.63a41.83,41.83,0,0,1-5.19,0c-4.85,0-9.69.65-14.55,0-1.93-.26-3.81-.92-5.78-.87v.06l-.4,0-.4,0V447c-2,0-3.86.61-5.78.87-4.86.66-9.7,0-14.55,0a41.83,41.83,0,0,1-5.19,0c-5.28-.66-7-2.59-6.92-6.63s.63-8.33.86-12.5c.26-4.62.54-9.26.65-13.87.29-12.12.29-24.25-.63-36.34a30.37,30.37,0,0,0-.68-5.78c-.09-.33-.09-.73-.48-.81h-.07c.58-14.88-2-29.74-4.71-44.34a7.17,7.17,0,0,1,1.56-.44c1.62-.27,3.25-.75,4.85-1a51.62,51.62,0,0,0,9.29-2.57,16.94,16.94,0,0,0,5.8-2.89,4.8,4.8,0,0,1,4.19-1,77.36,77.36,0,0,0,24.42,0,4.79,4.79,0,0,1,4.19,1,17,17,0,0,0,5.8,2.89,51.47,51.47,0,0,0,9.29,2.57C590.06,326.37,591.7,326.84,593.31,327.12Z" transform="translate(-485.71 -319.59)" fill="#d32940"/><g clip-path="url(#clip-path)"><rect x="547.54" y="395.85" width="4" height="82" transform="translate(-564.45 430.47) rotate(-64.98)" fill="#006aa5"/><rect x="537.52" y="353.34" width="28.57" height="132.55" transform="translate(-547.52 422.57) rotate(-64.98)" fill="#fff"/></g><path d="M543.79,319.59,557,339.14l13.37-19.55S561.44,321.61,543.79,319.59Z" transform="translate(-485.71 -319.59)" fill="#0f3051"/><path d="M526.11,383s16.93,37,15.72,55.49Z" transform="translate(-485.71 -319.59)" opacity="0.1"/><path d="M566,430.48s.5-35.5,6.5-44.5Z" transform="translate(-485.71 -319.59)" opacity="0.1"/><path d="M570.27,403.42s2.6-17.79,5.67-22.17Z" transform="translate(-485.71 -319.59)" opacity="0.1"/><path d="M565.33,355.64s12,6.69,14.85,4.84Z" transform="translate(-485.71 -319.59)" opacity="0.1"/><path d="M549.63,356.86s-13,4.38-15.49,2Z" transform="translate(-485.71 -319.59)" opacity="0.1"/></g></svg>