<svg xmlns="http://www.w3.org/2000/svg" xmlns:xlink="http://www.w3.org/1999/xlink" viewBox="0 0 162.37 162.01"><defs><clipPath id="clip-path" transform="translate(-486.38 -350.36)"><path d="M586.81,357.86a7.19,7.19,0,0,1,1.56.44c-2.72,14.6-5.28,29.47-4.7,44.34h-.08c-.39.08-.39.48-.48.81a30.91,30.91,0,0,0-.68,5.78c-.92,12.1-.92,24.22-.63,36.34.11,4.62.4,9.25.65,13.87.24,4.17.73,8.33.86,12.5s-1.64,6-6.92,6.63a41.79,41.79,0,0,1-5.19,0c-4.85,0-9.69.65-14.55,0-1.93-.26-3.81-.92-5.78-.87v.06l-.4,0-.4,0v-.06c-2,0-3.86.61-5.78.87-4.86.66-9.7,0-14.55,0a41.79,41.79,0,0,1-5.19,0c-5.28-.66-7-2.59-6.92-6.63s.63-8.33.86-12.5c.26-4.62.54-9.26.65-13.87.29-12.12.29-24.25-.63-36.34a30.36,30.36,0,0,0-.68-5.78c-.09-.33-.09-.73-.48-.81h-.07c.58-14.88-2-29.74-4.71-44.34a7.18,7.18,0,0,1,1.56-.44c1.62-.27,3.25-.75,4.85-1a51.61,51.61,0,0,0,9.29-2.57,16.94,16.94,0,0,0,5.8-2.89,4.8,4.8,0,0,1,4.19-1,77.35,77.35,0,0,0,24.42,0,4.79,4.79,0,0,1,4.19,1,17,17,0,0,0,5.8,2.89A51.46,51.46,0,0,0,582,356.9C583.56,357.11,585.19,357.58,586.81,357.86Z" fill="#dfdfde"/></clipPath><clipPath id="clip-path-2" transform="translate(-486.38 -350.36)"><path d="M614,399a2,2,0,0,1-.84,3c-3.89,2.08-7.82,4.07-11.72,6.13-2.41,1.28-4.8,2.6-7.18,3.93-1.68.94-3.21.6-4.1-1.1-1.38-2.63-3.12-5-4.62-7.57-.16-.27-.32-.6-.65-.58-.58-14.88,2-29.74,4.71-44.34a8.28,8.28,0,0,1,3.84,3.46c2.27,3.64,4,7.58,5.93,11.42,3.37,6.78,6.68,13.59,11,19.82C611.72,395.07,612.88,397,614,399Z" fill="#f4f4f3"/></clipPath><clipPath id="clip-path-3" transform="translate(-486.38 -350.36)"><path d="M486.74,399a2,2,0,0,0,.84,3c3.89,2.08,7.82,4.07,11.72,6.13,2.41,1.28,4.8,2.6,7.18,3.93,1.68.94,3.21.6,4.1-1.1,1.38-2.63,3.12-5,4.62-7.57.16-.27.32-.6.65-.58.58-14.88-2-29.74-4.71-44.34a8.28,8.28,0,0,0-3.84,3.46c-2.27,3.64-4,7.58-5.93,11.42-3.37,6.78-6.68,13.59-11,19.82C489,395.07,487.88,397,486.74,399Z" fill="#f4f4f3"/></clipPath></defs><title>Stoke</title><g id="Layer_1" data-name="Layer 1"><path d="M586.81,357.86a7.19,7.19,0,0,1,1.56.44c-2.72,14.6-5.28,29.47-4.7,44.34h-.08c-.39.08-.39.48-.48.81a30.91,30.91,0,0,0-.68,5.78c-.92,12.1-.92,24.22-.63,36.34.11,4.62.4,9.25.65,13.87.24,4.17.73,8.33.86,12.5s-1.64,6-6.92,6.63a41.79,41.79,0,0,1-5.19,0c-4.85,0-9.69.65-14.55,0-1.93-.26-3.81-.92-5.78-.87v.06l-.4,0-.4,0v-.06c-2,0-3.86.61-5.78.87-4.86.66-9.7,0-14.55,0a41.79,41.79,0,0,1-5.19,0c-5.28-.66-7-2.59-6.92-6.63s.63-8.33.86-12.5c.26-4.62.54-9.26.65-13.87.29-12.12.29-24.25-.63-36.34a30.36,30.36,0,0,0-.68-5.78c-.09-.33-.09-.73-.48-.81h-.07c.58-14.88-2-29.74-4.71-44.34a7.18,7.18,0,0,1,1.56-.44c1.62-.27,3.25-.75,4.85-1a51.61,51.61,0,0,0,9.29-2.57,16.94,16.94,0,0,0,5.8-2.89,4.8,4.8,0,0,1,4.19-1,77.35,77.35,0,0,0,24.42,0,4.79,4.79,0,0,1,4.19,1,17,17,0,0,0,5.8,2.89A51.46,51.46,0,0,0,582,356.9C583.56,357.11,585.19,357.58,586.81,357.86Z" transform="translate(-486.38 -350.36)" fill="#dfdfde"/><g clip-path="url(#clip-path)"><rect x="36.5" y="4.23" width="7.88" height="137.08" fill="#e62d3d"/><rect x="52.26" y="4.23" width="7.88" height="137.08" fill="#e62d3d"/><rect x="68.02" y="4.23" width="7.88" height="137.08" fill="#e62d3d"/><rect x="83.78" y="4.23" width="7.88" height="137.08" fill="#e62d3d"/></g><path d="M537.12,350.36l13.26,19.55,13.37-19.55S554.77,352.38,537.12,350.36Z" transform="translate(-486.38 -350.36)" fill="#8a8a8b" opacity="0.58"/><ellipse cx="64.05" cy="138.09" rx="34.28" ry="3.09" fill="#231f20" opacity="0.65"/><path d="M540.83,364a55.33,55.33,0,0,0,7.07,9c2.25,2.31,5.78-1.23,3.54-3.54a48.91,48.91,0,0,1-6.29-7.94c-1.72-2.71-6-.2-4.32,2.52Z" transform="translate(-486.38 -350.36)" fill="#fff"/><path d="M552.54,371.17q2.7-4,5.74-7.74a2.58,2.58,0,0,0,0-3.54,2.52,2.52,0,0,0-3.54,0q-3.46,4.23-6.53,8.75c-1.81,2.67,2.52,5.18,4.32,2.52Z" transform="translate(-486.38 -350.36)" fill="#fff"/><path d="M614,399a2,2,0,0,1-.84,3c-3.89,2.08-7.82,4.07-11.72,6.13-2.41,1.28-4.8,2.6-7.18,3.93-1.68.94-3.21.6-4.1-1.1-1.38-2.63-3.12-5-4.62-7.57-.16-.27-.32-.6-.65-.58-.58-14.88,2-29.74,4.71-44.34a8.28,8.28,0,0,1,3.84,3.46c2.27,3.64,4,7.58,5.93,11.42,3.37,6.78,6.68,13.59,11,19.82C611.72,395.07,612.88,397,614,399Z" transform="translate(-486.38 -350.36)" fill="#f4f4f3"/><g clip-path="url(#clip-path-2)"><rect x="593.21" y="362.84" width="6.97" height="51.3" transform="translate(-601.64 48.11) rotate(-33.87)" fill="#e13345"/><rect x="628.08" y="463.48" width="6.97" height="51.3" transform="translate(-651.81 84.62) rotate(-33.87)" fill="#e13345"/><rect x="581.24" y="370.88" width="6.97" height="51.3" transform="translate(-608.15 42.8) rotate(-33.87)" fill="#e13345"/></g><path d="M486.74,399a2,2,0,0,0,.84,3c3.89,2.08,7.82,4.07,11.72,6.13,2.41,1.28,4.8,2.6,7.18,3.93,1.68.94,3.21.6,4.1-1.1,1.38-2.63,3.12-5,4.62-7.57.16-.27.32-.6.65-.58.58-14.88-2-29.74-4.71-44.34a8.28,8.28,0,0,0-3.84,3.46c-2.27,3.64-4,7.58-5.93,11.42-3.37,6.78-6.68,13.59-11,19.82C489,395.07,487.88,397,486.74,399Z" transform="translate(-486.38 -350.36)" fill="#f4f4f3"/><g clip-path="url(#clip-path-3)"><rect x="500.58" y="362.84" width="6.97" height="51.3" transform="translate(219.7 641.63) rotate(-146.13)" fill="#e13345"/><rect x="512.55" y="370.88" width="6.97" height="51.3" transform="translate(237.13 663.01) rotate(-146.13)" fill="#e13345"/></g><rect x="37.08" y="37.96" width="54" height="11.63" fill="#e62f3e"/><path d="M520.18,411.32s16.93,37,15.72,55.49Z" transform="translate(-486.38 -350.36)" opacity="0.1"/><path d="M560.07,458.82s.5-35.5,6.5-44.5Z" transform="translate(-486.38 -350.36)" opacity="0.1"/><path d="M564.34,431.76s2.6-17.79,5.67-22.17Z" transform="translate(-486.38 -350.36)" opacity="0.1"/><path d="M559.4,384s12,6.69,14.85,4.84Z" transform="translate(-486.38 -350.36)" opacity="0.1"/><path d="M543.7,385.2s-13,4.38-15.49,2Z" transform="translate(-486.38 -350.36)" opacity="0.1"/></g></svg>