<svg xmlns="http://www.w3.org/2000/svg" xmlns:xlink="http://www.w3.org/1999/xlink" viewBox="0 0 129.21 143.04"><defs><clipPath id="clip-path" transform="translate(-593.72 -331.75)"><path d="M694.67,341.12a7.19,7.19,0,0,1,1.56.44c-2.72,14.6-5.28,29.47-4.7,44.34h-.08c-.39.08-.39.48-.48.81a30.91,30.91,0,0,0-.68,5.78c-.92,12.1-.92,24.22-.63,36.34.11,4.62.4,9.25.65,13.87.24,4.17.73,8.33.86,12.5s-1.64,6-6.92,6.63a41.79,41.79,0,0,1-5.19,0c-4.85,0-9.69.65-14.55,0-1.93-.26-3.81-.92-5.78-.87v.06l-.4,0-.4,0V461c-2,0-3.86.61-5.78.87-4.86.66-9.7,0-14.55,0a41.79,41.79,0,0,1-5.19,0c-5.28-.66-7-2.59-6.92-6.63s.63-8.33.86-12.5c.26-4.62.54-9.26.65-13.87.29-12.12.29-24.25-.63-36.34a30.36,30.36,0,0,0-.68-5.78c-.09-.33-.09-.73-.48-.81h-.07c.58-14.88-2-29.74-4.71-44.34a7.18,7.18,0,0,1,1.56-.44c1.62-.27,3.25-.75,4.85-1a51.61,51.61,0,0,0,9.29-2.57,16.94,16.94,0,0,0,5.8-2.89,4.8,4.8,0,0,1,4.19-1,77.35,77.35,0,0,0,24.42,0,4.79,4.79,0,0,1,4.19,1,17,17,0,0,0,5.8,2.89,51.46,51.46,0,0,0,9.29,2.57C691.42,340.37,693.05,340.84,694.67,341.12Z" fill="#e03040"/></clipPath><clipPath id="clip-path-2" transform="translate(-593.72 -331.75)"><path d="M722,382.28a2,2,0,0,1-.84,3c-3.89,2.08-7.82,4.07-11.72,6.13-2.41,1.28-4.8,2.6-7.18,3.93-1.68.94-3.21.6-4.1-1.1-1.38-2.63-3.12-5-4.62-7.57-.16-.27-.32-.6-.65-.58-.58-14.88,2-29.74,4.71-44.34a8.28,8.28,0,0,1,3.84,3.46c2.27,3.64,4,7.58,5.93,11.42,3.37,6.78,6.68,13.59,11,19.82C719.66,378.33,720.82,380.3,722,382.28Z" fill="#db2f3e"/></clipPath><clipPath id="clip-path-3" transform="translate(-593.72 -331.75)"><path d="M594.69,382.28a2,2,0,0,0,.84,3c3.89,2.08,7.82,4.07,11.72,6.13,2.41,1.28,4.8,2.6,7.18,3.93,1.68.94,3.21.6,4.1-1.1,1.38-2.63,3.12-5,4.62-7.57.16-.27.32-.6.65-.58.58-14.88-2-29.74-4.71-44.34a8.28,8.28,0,0,0-3.84,3.46c-2.27,3.64-4,7.58-5.93,11.42-3.37,6.78-6.68,13.59-11,19.82C597,378.33,595.82,380.3,594.69,382.28Z" fill="#db2f3e"/></clipPath></defs><title>Sunderland</title><g id="Layer_1" data-name="Layer 1"><path d="M694.67,341.12a7.19,7.19,0,0,1,1.56.44c-2.72,14.6-5.28,29.47-4.7,44.34h-.08c-.39.08-.39.48-.48.81a30.91,30.91,0,0,0-.68,5.78c-.92,12.1-.92,24.22-.63,36.34.11,4.62.4,9.25.65,13.87.24,4.17.73,8.33.86,12.5s-1.64,6-6.92,6.63a41.79,41.79,0,0,1-5.19,0c-4.85,0-9.69.65-14.55,0-1.93-.26-3.81-.92-5.78-.87v.06l-.4,0-.4,0V461c-2,0-3.86.61-5.78.87-4.86.66-9.7,0-14.55,0a41.79,41.79,0,0,1-5.19,0c-5.28-.66-7-2.59-6.92-6.63s.63-8.33.86-12.5c.26-4.62.54-9.26.65-13.87.29-12.12.29-24.25-.63-36.34a30.36,30.36,0,0,0-.68-5.78c-.09-.33-.09-.73-.48-.81h-.07c.58-14.88-2-29.74-4.71-44.34a7.18,7.18,0,0,1,1.56-.44c1.62-.27,3.25-.75,4.85-1a51.61,51.61,0,0,0,9.29-2.57,16.94,16.94,0,0,0,5.8-2.89,4.8,4.8,0,0,1,4.19-1,77.35,77.35,0,0,0,24.42,0,4.79,4.79,0,0,1,4.19,1,17,17,0,0,0,5.8,2.89,51.46,51.46,0,0,0,9.29,2.57C691.42,340.37,693.05,340.84,694.67,341.12Z" transform="translate(-593.72 -331.75)" fill="#e03040"/><g clip-path="url(#clip-path)"><rect x="37.3" width="10.17" height="137.08" fill="#e2e2e2"/><rect x="59.52" width="10.17" height="137.08" fill="#e2e2e2"/><rect x="81.74" width="10.17" height="137.08" fill="#e2e2e2"/></g><path d="M645.07,333.62l13.26,19.55,13.37-19.55S662.71,335.64,645.07,333.62Z" transform="translate(-593.72 -331.75)" fill="#710d25" opacity="0.58"/><ellipse cx="64.66" cy="139.95" rx="34.28" ry="3.09" fill="#231f20" opacity="0.65"/><path d="M722,382.28a2,2,0,0,1-.84,3c-3.89,2.08-7.82,4.07-11.72,6.13-2.41,1.28-4.8,2.6-7.18,3.93-1.68.94-3.21.6-4.1-1.1-1.38-2.63-3.12-5-4.62-7.57-.16-.27-.32-.6-.65-.58-.58-14.88,2-29.74,4.71-44.34a8.28,8.28,0,0,1,3.84,3.46c2.27,3.64,4,7.58,5.93,11.42,3.37,6.78,6.68,13.59,11,19.82C719.66,378.33,720.82,380.3,722,382.28Z" transform="translate(-593.72 -331.75)" fill="#db2f3e"/><g clip-path="url(#clip-path-2)"><rect x="709.46" y="338.54" width="0.78" height="50.96" transform="translate(-680.63 71.94) rotate(-30)" fill="#a5845b"/><rect x="708.85" y="340.17" width="0.78" height="50.96" transform="translate(-681.53 71.86) rotate(-30)" fill="#a5845b"/></g><path d="M594.69,382.28a2,2,0,0,0,.84,3c3.89,2.08,7.82,4.07,11.72,6.13,2.41,1.28,4.8,2.6,7.18,3.93,1.68.94,3.21.6,4.1-1.1,1.38-2.63,3.12-5,4.62-7.57.16-.27.32-.6.65-.58.58-14.88-2-29.74-4.71-44.34a8.28,8.28,0,0,0-3.84,3.46c-2.27,3.64-4,7.58-5.93,11.42-3.37,6.78-6.68,13.59-11,19.82C597,378.33,595.82,380.3,594.69,382.28Z" transform="translate(-593.72 -331.75)" fill="#db2f3e"/><g clip-path="url(#clip-path-3)"><rect x="606.41" y="338.54" width="0.78" height="50.96" transform="translate(356.57 650.92) rotate(-150)" fill="#a5845b"/><rect x="607.02" y="340.17" width="0.78" height="50.96" transform="translate(356.89 654.27) rotate(-150)" fill="#a5845b"/></g><path d="M649.67,344.89a55.33,55.33,0,0,0,7.07,9c2.25,2.31,5.78-1.23,3.54-3.54a48.91,48.91,0,0,1-6.29-7.94c-1.72-2.71-6-.2-4.32,2.52Z" transform="translate(-593.72 -331.75)" fill="#a5845b"/><path d="M661.38,352.09q2.7-4,5.74-7.74a2.58,2.58,0,0,0,0-3.54,2.52,2.52,0,0,0-3.54,0q-3.46,4.23-6.53,8.75c-1.81,2.67,2.52,5.18,4.32,2.52Z" transform="translate(-593.72 -331.75)" fill="#a5845b"/><path d="M628.41,397s16.93,37,15.72,55.49Z" transform="translate(-593.72 -331.75)" opacity="0.1"/><path d="M668.3,444.48s.5-35.5,6.5-44.5Z" transform="translate(-593.72 -331.75)" opacity="0.1"/><path d="M672.56,417.42s2.6-17.79,5.67-22.17Z" transform="translate(-593.72 -331.75)" opacity="0.1"/><path d="M667.63,369.64s12,6.69,14.85,4.84Z" transform="translate(-593.72 -331.75)" opacity="0.1"/><path d="M651.93,370.86s-13,4.38-15.49,2Z" transform="translate(-593.72 -331.75)" opacity="0.1"/></g></svg>