<svg xmlns="http://www.w3.org/2000/svg" viewBox="0 0 127.99 142.91"><title>Swansea</title><g id="Layer_1" data-name="Layer 1"><path d="M658.91,409.47a2,2,0,0,1-.84,3c-3.89,2.08-7.82,4.07-11.72,6.13-2.41,1.28-4.8,2.61-7.18,3.93-1.68.94-3.21.6-4.1-1.1-1.38-2.63-3.11-5-4.62-7.57-.16-.27-.32-.6-.65-.58-.58-14.88,2-29.74,4.71-44.34a8.28,8.28,0,0,1,3.84,3.46c2.27,3.64,4,7.58,5.93,11.42,3.37,6.78,6.68,13.59,11,19.82C656.61,405.51,657.77,407.48,658.91,409.47Z" transform="translate(-531.28 -360.8)" fill="#fff"/><path d="M594.87,488.18c-2,0-3.86.61-5.78.87-4.86.66-9.7,0-14.55,0a41.83,41.83,0,0,1-5.19,0c-5.28-.66-7-2.59-6.92-6.63s.63-8.33.86-12.5c.26-4.62.54-9.26.65-13.87.29-12.12.29-24.25-.63-36.34a30.65,30.65,0,0,0-.68-5.78c-.09-.33-.09-.73-.48-.81h-.07c.58-14.88-2-29.74-4.71-44.34a7.17,7.17,0,0,1,1.56-.44c1.62-.27,3.25-.75,4.85-1a51.58,51.58,0,0,0,9.3-2.57,16.94,16.94,0,0,0,5.8-2.89,4.8,4.8,0,0,1,4.19-1,77.36,77.36,0,0,0,24.42,0,4.79,4.79,0,0,1,4.19,1,17,17,0,0,0,5.8,2.89,51.47,51.47,0,0,0,9.29,2.57c1.6.21,3.23.68,4.85,1a7.17,7.17,0,0,1,1.56.44c-2.72,14.6-5.28,29.47-4.71,44.34h-.07c-.39.08-.39.48-.48.81a30.93,30.93,0,0,0-.68,5.78c-.92,12.1-.92,24.22-.63,36.34.11,4.62.4,9.25.65,13.87.23,4.17.73,8.33.86,12.5s-1.64,6-6.92,6.63a41.83,41.83,0,0,1-5.19,0c-4.85,0-9.69.65-14.55,0-1.93-.26-3.81-.92-5.78-.87v.06l-.4,0-.41,0Z" transform="translate(-531.28 -360.8)" fill="#fff"/><path d="M556,368.93c2.72,14.6,5.29,29.47,4.71,44.34-.34,0-.49.31-.65.58-1.51,2.54-3.24,4.94-4.62,7.57-.89,1.7-2.42,2-4.1,1.1-2.39-1.33-4.77-2.65-7.18-3.93-3.9-2.06-7.83-4-11.72-6.13a2,2,0,0,1-.84-3c1.13-2,2.29-4,3.6-5.83,4.36-6.24,7.67-13,11-19.82,1.91-3.84,3.65-7.78,5.93-11.42A8.28,8.28,0,0,1,556,368.93Z" transform="translate(-531.28 -360.8)" fill="#fff"/><path d="M582,360.8l13.26,19.55,13.37-19.55S599.66,362.82,582,360.8Z" transform="translate(-531.28 -360.8)" fill="#bab7b8"/><ellipse cx="64.05" cy="139.82" rx="34.28" ry="3.09" fill="#231f20" opacity="0.65"/><path d="M585.73,374.41a55.33,55.33,0,0,0,7.07,9c2.25,2.31,5.78-1.23,3.54-3.54a48.91,48.91,0,0,1-6.29-7.94c-1.72-2.71-6-.2-4.32,2.52Z" transform="translate(-531.28 -360.8)" fill="#231f20"/><path d="M597.43,381.61q2.7-4,5.74-7.74a2.58,2.58,0,0,0,0-3.54,2.52,2.52,0,0,0-3.54,0q-3.46,4.23-6.53,8.75c-1.81,2.67,2.52,5.18,4.32,2.52Z" transform="translate(-531.28 -360.8)" fill="#231f20"/><path d="M617.14,384.92a2.94,2.94,0,0,0-4.69.75c-.89,2.07,1.34,4.26,3.4,3.73a.5.5,0,0,0-.27-1c-1.34.35-3-1.25-2.12-2.56a2,2,0,0,1,3-.24c.43.48,1.14-.23.71-.71Z" transform="translate(-531.28 -360.8)" fill="#231f20"/><path d="M611.69,388a7.29,7.29,0,0,1-2.8,3.1c-.55.33,0,1.2.5.86a8.24,8.24,0,0,0,3.16-3.46c.28-.58-.58-1.08-.86-.5Z" transform="translate(-531.28 -360.8)" fill="#231f20"/><path d="M612.89,389.17a14.85,14.85,0,0,1-2.57,2.52c-.51.38,0,1.25.5.86a15.82,15.82,0,0,0,2.77-2.67c.4-.5-.3-1.21-.71-.71Z" transform="translate(-531.28 -360.8)" fill="#231f20"/><path d="M614.41,389.93,611.5,393c-.44.47.27,1.18.71.71l2.9-3.09c.44-.47-.27-1.18-.71-.71Z" transform="translate(-531.28 -360.8)" fill="#231f20"/><path d="M565.09,426.8s16.93,37,15.72,55.49Z" transform="translate(-531.28 -360.8)" opacity="0.1"/><path d="M605,474.29s.5-35.5,6.5-44.5Z" transform="translate(-531.28 -360.8)" opacity="0.1"/><path d="M609.25,447.24s2.6-17.79,5.67-22.17Z" transform="translate(-531.28 -360.8)" opacity="0.1"/><path d="M604.32,399.46s12,6.69,14.85,4.84Z" transform="translate(-531.28 -360.8)" opacity="0.1"/><path d="M588.62,400.68s-13,4.38-15.49,2Z" transform="translate(-531.28 -360.8)" opacity="0.1"/></g></svg>