<svg xmlns="http://www.w3.org/2000/svg" xmlns:xlink="http://www.w3.org/1999/xlink" viewBox="0 0 127.99 142.93"><defs><clipPath id="clip-path" transform="translate(-539.73 -356.77)"><path d="M640.07,364.3a7.57,7.57,0,0,1,1.56.44c-2.72,14.6-5.28,29.47-4.71,44.34h-.07c-.39.08-.39.48-.48.81a30.68,30.68,0,0,0-.68,5.78c-.92,12.1-.92,24.23-.63,36.34.11,4.62.4,9.25.65,13.87.23,4.17.73,8.33.86,12.5s-1.64,6-6.92,6.64a42.49,42.49,0,0,1-5.19,0c-4.85,0-9.69.64-14.55,0-1.93-.26-3.81-.92-5.78-.87v.06l-.4,0-.4,0v-.06c-2,0-3.86.61-5.78.87-4.86.66-9.7,0-14.55,0a42.49,42.49,0,0,1-5.19,0c-5.28-.66-7-2.59-6.92-6.64s.63-8.33.86-12.5c.26-4.62.54-9.26.65-13.87.29-12.12.29-24.25-.63-36.34a31,31,0,0,0-.68-5.78c-.09-.32-.09-.73-.48-.81h-.08c.58-14.88-2-29.74-4.7-44.34a7.57,7.57,0,0,1,1.56-.44c1.62-.27,3.25-.74,4.85-1a51.21,51.21,0,0,0,9.29-2.57,17,17,0,0,0,5.8-2.88,4.77,4.77,0,0,1,4.19-1,77.36,77.36,0,0,0,24.42,0,4.78,4.78,0,0,1,4.19,1,16.93,16.93,0,0,0,5.8,2.88,51.36,51.36,0,0,0,9.29,2.57C636.82,363.56,638.45,364,640.07,364.3Z" fill="#f4f4f3"/></clipPath></defs><title>Tottenham</title><g id="Layer_1" data-name="Layer 1"><path d="M640.07,364.3a7.57,7.57,0,0,1,1.56.44c-2.72,14.6-5.28,29.47-4.71,44.34h-.07c-.39.08-.39.48-.48.81a30.68,30.68,0,0,0-.68,5.78c-.92,12.1-.92,24.23-.63,36.34.11,4.62.4,9.25.65,13.87.23,4.17.73,8.33.86,12.5s-1.64,6-6.92,6.64a42.49,42.49,0,0,1-5.19,0c-4.85,0-9.69.64-14.55,0-1.93-.26-3.81-.92-5.78-.87v.06l-.4,0-.4,0v-.06c-2,0-3.86.61-5.78.87-4.86.66-9.7,0-14.55,0a42.49,42.49,0,0,1-5.19,0c-5.28-.66-7-2.59-6.92-6.64s.63-8.33.86-12.5c.26-4.62.54-9.26.65-13.87.29-12.12.29-24.25-.63-36.34a31,31,0,0,0-.68-5.78c-.09-.32-.09-.73-.48-.81h-.08c.58-14.88-2-29.74-4.7-44.34a7.57,7.57,0,0,1,1.56-.44c1.62-.27,3.25-.74,4.85-1a51.21,51.21,0,0,0,9.29-2.57,17,17,0,0,0,5.8-2.88,4.77,4.77,0,0,1,4.19-1,77.36,77.36,0,0,0,24.42,0,4.78,4.78,0,0,1,4.19,1,16.93,16.93,0,0,0,5.8,2.88,51.36,51.36,0,0,0,9.29,2.57C636.82,363.56,638.45,364,640.07,364.3Z" transform="translate(-539.73 -356.77)" fill="#f4f4f3"/><g clip-path="url(#clip-path)"><rect x="6.72" width="114.55" height="22.04" fill="#18162e"/></g><path d="M667.36,405.47a2,2,0,0,1-.84,3c-3.89,2.08-7.82,4.07-11.72,6.13-2.41,1.28-4.8,2.6-7.18,3.93-1.68.94-3.21.6-4.1-1.1-1.38-2.63-3.12-5-4.62-7.57-.16-.27-.32-.6-.65-.58-.58-14.88,2-29.74,4.71-44.34a8.28,8.28,0,0,1,3.84,3.46c2.27,3.64,4,7.58,5.93,11.42,3.37,6.78,6.68,13.59,11,19.82C665.06,401.51,666.22,403.49,667.36,405.47Z" transform="translate(-539.73 -356.77)" fill="#f6f5f5"/><path d="M564.49,364.94c2.72,14.6,5.29,29.47,4.71,44.34-.34,0-.49.31-.65.58-1.51,2.54-3.25,4.94-4.62,7.57-.89,1.7-2.42,2-4.1,1.1-2.39-1.33-4.77-2.65-7.18-3.93-3.9-2.06-7.83-4-11.72-6.13a2,2,0,0,1-.84-3c1.13-2,2.29-4,3.6-5.83,4.36-6.24,7.67-13,11-19.82,1.91-3.84,3.66-7.78,5.93-11.42A8.28,8.28,0,0,1,564.49,364.94Z" transform="translate(-539.73 -356.77)" fill="#f6f5f5"/><path d="M590.47,356.8l13.26,19.55,13.37-19.55S608.11,358.82,590.47,356.8Z" transform="translate(-539.73 -356.77)" fill="#9c9f9f"/><ellipse cx="64.05" cy="139.85" rx="34.28" ry="3.09" fill="#231f20" opacity="0.65"/><path d="M595.09,369.06a55.33,55.33,0,0,0,7.07,9c2.25,2.31,5.78-1.23,3.54-3.54a48.91,48.91,0,0,1-6.29-7.94c-1.72-2.71-6-.2-4.32,2.52Z" transform="translate(-539.73 -356.77)" fill="#d89a58"/><path d="M606.8,376.25q2.7-4,5.74-7.74a2.58,2.58,0,0,0,0-3.54,2.52,2.52,0,0,0-3.54,0q-3.46,4.23-6.53,8.75c-1.81,2.67,2.52,5.18,4.32,2.52Z" transform="translate(-539.73 -356.77)" fill="#d89a58"/><path d="M573.56,420.87s16.93,37,15.72,55.49Z" transform="translate(-539.73 -356.77)" opacity="0.1"/><path d="M613.44,468.37s.5-35.5,6.5-44.5Z" transform="translate(-539.73 -356.77)" opacity="0.1"/><path d="M617.71,441.31s2.6-17.79,5.67-22.17Z" transform="translate(-539.73 -356.77)" opacity="0.1"/><path d="M612.78,393.53s12,6.69,14.85,4.84Z" transform="translate(-539.73 -356.77)" opacity="0.1"/><path d="M597.08,394.75s-13,4.38-15.49,2Z" transform="translate(-539.73 -356.77)" opacity="0.1"/></g></svg>