<svg xmlns="http://www.w3.org/2000/svg" xmlns:xlink="http://www.w3.org/1999/xlink" viewBox="0 0 127.99 153.21"><defs><clipPath id="clip-path" transform="translate(-605.89 -398.98)"><path d="M707.85,406.92a7.29,7.29,0,0,0-1.56-.44c-1.62-.27-3.25-.75-4.85-1a51.44,51.44,0,0,1-9.29-2.57,16.92,16.92,0,0,1-5.8-2.88,4.8,4.8,0,0,0-4.19-1,77.26,77.26,0,0,1-24.42,0,4.8,4.8,0,0,0-4.19,1,16.92,16.92,0,0,1-5.8,2.88,51.44,51.44,0,0,1-9.29,2.57c-1.6.21-3.23.68-4.85,1a7.29,7.29,0,0,0-1.56.44c2.72,14.6,5.29,29.47,4.71,44.34h.07c.39.08.39.48.48.81a30.67,30.67,0,0,1,.68,5.78c.92,12.1.92,24.23.63,36.34-.11,4.62-.39,9.25-.65,13.88-.23,4.17-.73,8.33-.86,12.5s1.65,6,6.92,6.64a42.24,42.24,0,0,0,5.19,0c4.85,0,9.69.65,14.55,0,1.93-.26,3.81-.92,5.78-.87v.06l.4,0,.4,0v-.06c2,0,3.86.61,5.78.87,4.86.66,9.7,0,14.55,0a42.24,42.24,0,0,0,5.19,0c5.28-.66,7-2.59,6.92-6.64s-.63-8.33-.86-12.5c-.26-4.62-.54-9.26-.65-13.88-.29-12.12-.29-24.25.63-36.34a30.67,30.67,0,0,1,.68-5.78c.09-.32.09-.73.48-.81h.07C702.56,436.39,705.12,421.53,707.85,406.92Z" fill="#f2e744"/></clipPath></defs><title>Watford</title><g id="Layer_1" data-name="Layer 1"><path d="M733.52,448.17a2,2,0,0,1-.84,3c-3.89,2.08-7.82,4.07-11.72,6.13-2.42,1.27-4.8,2.6-7.18,3.93-1.68.94-3.21.6-4.1-1.1-1.38-2.63-3.12-5-4.62-7.57-.16-.27-.31-.6-.65-.58-.58-14.88,2-29.74,4.71-44.34A8.23,8.23,0,0,1,713,411.1c2.27,3.64,4,7.58,5.93,11.42,3.37,6.78,6.68,13.59,11,19.82C731.23,444.21,732.39,446.19,733.52,448.17Z" transform="translate(-605.89 -398.98)" fill="#f1e541"/><path d="M630.66,407.64c2.72,14.6,5.28,29.47,4.71,44.34-.34,0-.49.31-.65.58-1.51,2.54-3.25,4.94-4.62,7.57-.89,1.69-2.42,2-4.1,1.1-2.38-1.33-4.77-2.66-7.18-3.93-3.9-2.06-7.83-4-11.72-6.13a2,2,0,0,1-.84-3c1.14-2,2.29-4,3.6-5.83,4.35-6.23,7.67-13,11-19.82,1.91-3.84,3.66-7.78,5.93-11.42A8.23,8.23,0,0,1,630.66,407.64Z" transform="translate(-605.89 -398.98)" fill="#f1e541"/><ellipse cx="64.05" cy="140.34" rx="34.28" ry="3.09" fill="#231f20" opacity="0.65"/><path d="M707.85,406.92a7.29,7.29,0,0,0-1.56-.44c-1.62-.27-3.25-.75-4.85-1a51.44,51.44,0,0,1-9.29-2.57,16.92,16.92,0,0,1-5.8-2.88,4.8,4.8,0,0,0-4.19-1,77.26,77.26,0,0,1-24.42,0,4.8,4.8,0,0,0-4.19,1,16.92,16.92,0,0,1-5.8,2.88,51.44,51.44,0,0,1-9.29,2.57c-1.6.21-3.23.68-4.85,1a7.29,7.29,0,0,0-1.56.44c2.72,14.6,5.29,29.47,4.71,44.34h.07c.39.08.39.48.48.81a30.67,30.67,0,0,1,.68,5.78c.92,12.1.92,24.23.63,36.34-.11,4.62-.39,9.25-.65,13.88-.23,4.17-.73,8.33-.86,12.5s1.65,6,6.92,6.64a42.24,42.24,0,0,0,5.19,0c4.85,0,9.69.65,14.55,0,1.93-.26,3.81-.92,5.78-.87v.06l.4,0,.4,0v-.06c2,0,3.86.61,5.78.87,4.86.66,9.7,0,14.55,0a42.24,42.24,0,0,0,5.19,0c5.28-.66,7-2.59,6.92-6.64s-.63-8.33-.86-12.5c-.26-4.62-.54-9.26-.65-13.88-.29-12.12-.29-24.25.63-36.34a30.67,30.67,0,0,1,.68-5.78c.09-.32.09-.73.48-.81h.07C702.56,436.39,705.12,421.53,707.85,406.92Z" transform="translate(-605.89 -398.98)" fill="#f2e744"/><g clip-path="url(#clip-path)"><rect x="699.86" y="443.03" width="3.76" height="109.16" transform="translate(797.6 596.25) rotate(180)" fill="#ce3627"/><rect x="636.42" y="443.03" width="3.76" height="109.16" transform="translate(670.71 596.25) rotate(180)" fill="#ce3627"/></g><path d="M656.63,399.5l13.26,19.55,13.37-19.55S674.28,401.53,656.63,399.5Z" transform="translate(-605.89 -398.98)" fill="#a49833"/><path d="M660.34,413.12a55.33,55.33,0,0,0,7.07,9c2.25,2.31,5.78-1.23,3.54-3.54a48.91,48.91,0,0,1-6.29-7.94c-1.72-2.71-6-.2-4.32,2.52Z" transform="translate(-605.89 -398.98)" fill="#231f20"/><path d="M672,420.32q2.7-4,5.74-7.74a2.58,2.58,0,0,0,0-3.54,2.52,2.52,0,0,0-3.54,0q-3.46,4.23-6.53,8.75c-1.81,2.67,2.52,5.18,4.32,2.52Z" transform="translate(-605.89 -398.98)" fill="#231f20"/><path d="M639.58,462s16.93,37,15.72,55.49Z" transform="translate(-605.89 -398.98)" opacity="0.1"/><path d="M679.46,509.48S680,474,686,465Z" transform="translate(-605.89 -398.98)" opacity="0.1"/><path d="M683.73,482.42s2.6-17.79,5.67-22.17Z" transform="translate(-605.89 -398.98)" opacity="0.1"/><path d="M678.8,434.64s12,6.69,14.85,4.84Z" transform="translate(-605.89 -398.98)" opacity="0.1"/><path d="M663.1,435.86s-13,4.38-15.49,2Z" transform="translate(-605.89 -398.98)" opacity="0.1"/></g></svg>