<svg xmlns="http://www.w3.org/2000/svg" xmlns:xlink="http://www.w3.org/1999/xlink" viewBox="0 0 127.99 153.21"><defs><clipPath id="clip-path" transform="translate(-529.17 -386.8)"><path d="M631.12,394.74a7.29,7.29,0,0,0-1.56-.44c-1.62-.27-3.25-.75-4.85-1a51.44,51.44,0,0,1-9.29-2.57,16.92,16.92,0,0,1-5.8-2.88,4.8,4.8,0,0,0-4.19-1,77.26,77.26,0,0,1-24.42,0,4.8,4.8,0,0,0-4.19,1,16.92,16.92,0,0,1-5.8,2.88,51.44,51.44,0,0,1-9.29,2.57c-1.6.21-3.23.68-4.85,1a7.29,7.29,0,0,0-1.56.44c2.72,14.6,5.29,29.47,4.71,44.34h.07c.39.08.39.48.48.81a30.67,30.67,0,0,1,.68,5.78c.92,12.1.92,24.23.63,36.34-.11,4.62-.39,9.25-.65,13.88-.23,4.17-.73,8.33-.86,12.5s1.65,6,6.92,6.64a42.24,42.24,0,0,0,5.19,0c4.85,0,9.69.65,14.55,0,1.93-.26,3.81-.92,5.78-.87v.06l.4,0,.4,0v-.06c2,0,3.86.61,5.78.87,4.86.66,9.7,0,14.55,0a42.24,42.24,0,0,0,5.19,0c5.28-.66,7-2.59,6.92-6.64s-.63-8.33-.86-12.5c-.26-4.62-.54-9.26-.65-13.88-.29-12.12-.29-24.25.63-36.34a30.67,30.67,0,0,1,.68-5.78c.09-.32.09-.73.48-.81h.07C625.84,424.21,628.4,409.35,631.12,394.74Z" fill="#7f273f"/></clipPath></defs><title>West Ham</title><g id="Layer_1" data-name="Layer 1"><ellipse cx="64.05" cy="140.34" rx="34.28" ry="3.09" fill="#231f20" opacity="0.65"/><path d="M656.8,436a2,2,0,0,1-.84,3c-3.89,2.08-7.82,4.07-11.72,6.13-2.41,1.27-4.8,2.6-7.18,3.93-1.68.94-3.21.6-4.1-1.1-1.38-2.63-3.11-5-4.62-7.57-.16-.27-.32-.6-.65-.58-.58-14.88,2-29.74,4.71-44.34a8.28,8.28,0,0,1,3.84,3.46c2.27,3.64,4,7.58,5.93,11.42,3.37,6.78,6.68,13.59,11,19.82C654.5,432,655.66,434,656.8,436Z" transform="translate(-529.17 -386.8)" fill="#6bcdef"/><path d="M553.93,395.46c2.72,14.6,5.29,29.47,4.71,44.34-.34,0-.49.31-.65.58-1.51,2.54-3.24,4.94-4.62,7.57-.89,1.69-2.42,2-4.1,1.1-2.39-1.33-4.77-2.66-7.18-3.93-3.9-2.06-7.83-4-11.72-6.13a2,2,0,0,1-.84-3c1.13-2,2.29-4,3.6-5.83,4.36-6.23,7.67-13,11-19.82,1.91-3.84,3.66-7.78,5.93-11.42A8.28,8.28,0,0,1,553.93,395.46Z" transform="translate(-529.17 -386.8)" fill="#6bcdef"/><path d="M631.12,394.74a7.29,7.29,0,0,0-1.56-.44c-1.62-.27-3.25-.75-4.85-1a51.44,51.44,0,0,1-9.29-2.57,16.92,16.92,0,0,1-5.8-2.88,4.8,4.8,0,0,0-4.19-1,77.26,77.26,0,0,1-24.42,0,4.8,4.8,0,0,0-4.19,1,16.92,16.92,0,0,1-5.8,2.88,51.44,51.44,0,0,1-9.29,2.57c-1.6.21-3.23.68-4.85,1a7.29,7.29,0,0,0-1.56.44c2.72,14.6,5.29,29.47,4.71,44.34h.07c.39.08.39.48.48.81a30.67,30.67,0,0,1,.68,5.78c.92,12.1.92,24.23.63,36.34-.11,4.62-.39,9.25-.65,13.88-.23,4.17-.73,8.33-.86,12.5s1.65,6,6.92,6.64a42.24,42.24,0,0,0,5.19,0c4.85,0,9.69.65,14.55,0,1.93-.26,3.81-.92,5.78-.87v.06l.4,0,.4,0v-.06c2,0,3.86.61,5.78.87,4.86.66,9.7,0,14.55,0a42.24,42.24,0,0,0,5.19,0c5.28-.66,7-2.59,6.92-6.64s-.63-8.33-.86-12.5c-.26-4.62-.54-9.26-.65-13.88-.29-12.12-.29-24.25.63-36.34a30.67,30.67,0,0,1,.68-5.78c.09-.32.09-.73.48-.81h.07C625.84,424.21,628.4,409.35,631.12,394.74Z" transform="translate(-529.17 -386.8)" fill="#7f273f"/><g clip-path="url(#clip-path)"><rect x="623.14" y="430.85" width="3.76" height="109.16" transform="translate(720.87 584.07) rotate(180)" fill="#75c5e8"/><rect x="559.7" y="430.85" width="3.76" height="109.16" transform="translate(593.99 584.07) rotate(180)" fill="#75c5e8"/></g><path d="M579.91,387.32l13.26,19.55,13.37-19.55S597.55,389.35,579.91,387.32Z" transform="translate(-529.17 -386.8)" fill="#440a23"/><path d="M583.61,400.94a55.33,55.33,0,0,0,7.07,9c2.25,2.31,5.78-1.23,3.54-3.54a48.91,48.91,0,0,1-6.29-7.94c-1.72-2.71-6-.2-4.32,2.52Z" transform="translate(-529.17 -386.8)" fill="#fff"/><path d="M595.32,408.14q2.7-4,5.74-7.74a2.58,2.58,0,0,0,0-3.54,2.52,2.52,0,0,0-3.54,0q-3.46,4.23-6.53,8.75c-1.81,2.67,2.52,5.18,4.32,2.52Z" transform="translate(-529.17 -386.8)" fill="#fff"/><path d="M607.25,411.4l0,.06.68-.18-.06,0,.23.56.36-.9c.16-.41-.39-.78-.73-.56l-.58.36.68.68.38-.53-.86-.5-.81,1.49.86.5c.74-1.62,5.19,3.67,5.89,4.42.44.47,1.15-.24.71-.71-1-1.09-6-7.45-7.46-4.22-.26.57.55,1.08.86.5l.81-1.49a.5.5,0,0,0-.86-.5l-.38.53c-.3.41.28.94.68.68l.58-.36-.73-.56-.36.9a.51.51,0,0,0,.23.56l.06,0a.51.51,0,0,0,.68-.18l0-.06c.37-.53-.5-1-.86-.5Z" transform="translate(-529.17 -386.8)" fill="#dfc94f"/><path d="M613.29,410,608,416c-.42.48.28,1.19.71.71l5.28-6c.42-.48-.28-1.19-.71-.71Z" transform="translate(-529.17 -386.8)" fill="#dfc94f"/><path d="M613.08,409.65h-.33l.43.75a8.22,8.22,0,0,1,.56-1l-.91-.12-.05.2c-.34.55.53,1.05.86.5a1.22,1.22,0,0,0,.15-1,.51.51,0,0,0-.91-.12,8.22,8.22,0,0,0-.56,1,.51.51,0,0,0,.43.75h.33a.5.5,0,0,0,0-1Z" transform="translate(-529.17 -386.8)" fill="#dfc94f"/><path d="M612.53,409.94q.8.9,1.66,1.72c.47.44,1.17-.26.71-.71s-1.13-1.12-1.66-1.72-1.13.23-.71.71Z" transform="translate(-529.17 -386.8)" fill="#dfc94f"/><path d="M607.45,410.46a6.22,6.22,0,0,1,1.62,1.27l.22-.84a.28.28,0,0,1-.27-.13c-.37-.52-1.23,0-.86.5a1.35,1.35,0,0,0,1.4.59c.4-.05.44-.59.22-.84A7.06,7.06,0,0,0,608,409.6c-.56-.31-1.07.55-.5.86Z" transform="translate(-529.17 -386.8)" fill="#dfc94f"/><path d="M562.07,456.16s16.93,37,15.72,55.49Z" transform="translate(-529.17 -386.8)" opacity="0.1"/><path d="M602,503.66s.5-35.5,6.5-44.5Z" transform="translate(-529.17 -386.8)" opacity="0.1"/><path d="M606.23,476.6s2.6-17.79,5.67-22.17Z" transform="translate(-529.17 -386.8)" opacity="0.1"/><path d="M601.29,428.82s12,6.69,14.85,4.84Z" transform="translate(-529.17 -386.8)" opacity="0.1"/><path d="M585.59,430s-13,4.38-15.49,2Z" transform="translate(-529.17 -386.8)" opacity="0.1"/></g></svg>